<svg viewBox="0 0 512 512" xmlns="http://www.w3.org/2000/svg"><path d="M256 0C114.6 0 0 114.6 0 256s114.6 256 256 256 256-114.6 256-256S397.4 0 256 0zm80 176c17.69 0 31.99 14.3 31.99 32s-14.3 32-31.99 32-32.02-14.3-32.02-32 14.32-32 32.02-32zm-160.9 0c17.69 0 32.02 14.3 32.02 32s-14.33 32-32.02 32-31.99-14.3-31.99-32 15.19-32 31.99-32zm195.7 170.2c-28.5 34.2-70.3 52.9-114.8 52.9s-86.27-19.55-114.8-53.76c-13.59-16.3 10.95-36.7 24.57-20.5C188.2 352.6 221 367.9 256 367.9s67.82-15.42 90.2-42.22c13.4-16.18 38.1 4.22 24.6 20.52z" fill="#00c73c" class="fill-000000"></path></svg>