<svg viewBox="0 0 512 512" xmlns="http://www.w3.org/2000/svg"><path d="M256 0C114.6 0 0 114.6 0 256s114.6 256 256 256 256-114.6 256-256S397.4 0 256 0zm80 176c17.68 0 31.97 14.25 31.97 32s-14.29 32-31.97 32c-17.8 0-32.09-14.25-32.09-32s14.29-32 32.09-32zm-160.9 0c17.8 0 32.09 14.25 32.09 32s-14.29 32-32.09 32c-17.68 0-31.97-14.25-31.97-32s15.17-32 31.97-32zm196 223.7c-1 .2-2.1.3-4 .3-7.469 0-14.12-5.25-15.66-12.88C351.8 384.5 337.1 320 256 320s-95.75 64.47-96.34 67.22c-1.812 8.625-10.03 14.16-18.88 12.41-8.625-1.781-14.19-10.12-12.47-18.75C134.8 348.8 169.7 288 256 288s121.3 60.75 127.7 92.88c1.7 8.62-3.9 16.22-12.6 18.82z" fill="#fa5252" class="fill-000000"></path></svg>